<svg xmlns="http://www.w3.org/2000/svg" xmlns:xlink="http://www.w3.org/1999/xlink" viewBox="0 0 1280 223.41"><defs><style>.cls-1{fill:#fff;}.cls-2{clip-path:url(#clip-path);}.cls-3{clip-path:url(#clip-path-2);}</style><clipPath id="clip-path" transform="translate(0)"><path class="cls-1" d="M171.56,0H8.21A8.22,8.22,0,0,0,0,8.21V122.32a1.27,1.27,0,0,0,0,.32L0,123a8.22,8.22,0,0,0,8.21,8.21H40.78v46.58a8.22,8.22,0,0,0,16.43,0V131.24h65.34v46.58a8.22,8.22,0,0,0,16.44,0v-54.3a7.83,7.83,0,0,0-.16-1.58,8.22,8.22,0,0,0-8.11-7.12H16.66V16.42H163.35V49.05a8.21,8.21,0,0,0,16.42,0V8.21A8.22,8.22,0,0,0,171.56,0Z"/></clipPath><clipPath id="clip-path-2" transform="translate(0)"><path class="cls-1" d="M171.56,92.18H139V46.31a8.22,8.22,0,0,0-16.44,0V92.18H57.21V46.42a8.22,8.22,0,1,0-16.43,0v54.19a8.17,8.17,0,0,0,8.33,8.11,5.47,5.47,0,0,0,1.2-.12l78.89,0a8.48,8.48,0,0,0,1.68.15,5.57,5.57,0,0,0,1.21-.12h31.26V207H16.42V174.36a8.21,8.21,0,0,0-16.42,0V215.2a8.22,8.22,0,0,0,8.21,8.21H171.56a8.2,8.2,0,0,0,8.18-8.3l0-111.35a8,8,0,0,0-.2-1.69,7.91,7.91,0,0,0,.2-1.68A8.22,8.22,0,0,0,171.56,92.18Z"/></clipPath></defs><g id="Layer_2" data-name="Layer 2"><g id="Layer_1-2" data-name="Layer 1"><path class="cls-1" d="M310.05,129.44H260.84V175.2H243.68V70.59h17.16v44.86h49.21V70.59h17.16V175.2H310.05Z" transform="translate(0)"/><path class="cls-1" d="M380.2,90.91c14,0,23.63,6.63,28.74,13.4v-12h17.31V175.2H408.94V162.86c-5.26,7.07-15.2,13.7-29,13.7-21.53,0-38.84-17.61-38.84-43.2S358.37,90.91,380.2,90.91Zm3.61,14.9c-12.8,0-25.14,9.64-25.14,27.55s12.34,28.3,25.14,28.3,25.13-10.09,25.13-28C408.94,115.9,396.75,105.81,383.81,105.81Z" transform="translate(0)"/><path class="cls-1" d="M475.93,176.56c-19.87,0-33.87-11.74-34.62-26.8h17.76c.6,6.78,7.07,12.35,16.56,12.35,9.93,0,15.2-4.22,15.2-9.94,0-16.25-48.17-6.92-48.17-37.32,0-13.25,12.35-23.94,31.91-23.94,18.82,0,31.16,10.09,32.06,26.64H489.47c-.6-7.22-6.17-12.19-15.5-12.19s-14,3.77-14,9.33c0,16.71,46.81,7.38,47.72,37.33C507.69,166,495.49,176.56,475.93,176.56Z" transform="translate(0)"/><path class="cls-1" d="M523.19,63.82h17.16V101.9c5.72-6.92,15-11,25.74-11,18.51,0,33,12.2,33,35.37V175.2H582V128.84c0-15.2-8.28-23-20.77-23s-20.92,7.83-20.92,23V175.2H523.19Z" transform="translate(0)"/><path class="cls-1" d="M686.65,176.25c-21.07,0-34.92-12-35.52-28.14h11.14c.9,8.73,7.38,19.26,24.38,19.26,14.6,0,23.18-8.58,23.18-19.41,0-31-57.79-11.44-57.79-51,0-16.25,13.39-28.14,33.71-28.14,20,0,32.06,11.14,33.87,25.59H708.18C707,87,699.9,78,685.3,77.82c-12.34-.15-22.58,6.62-22.58,18.81,0,30.41,57.8,11.74,57.8,50.88C720.52,161.8,708.93,176.25,686.65,176.25Z" transform="translate(0)"/><path class="cls-1" d="M773.8,176.41c-23.17,0-40.79-16.26-40.79-42.3,0-26.19,18.07-42.29,41.1-42.29s41.09,16.1,41.09,42.29C815.2,160.15,797,176.41,773.8,176.41Zm0-9.19c15.51,0,30.56-10.53,30.56-33.11S789.61,101,774,101s-30.25,10.53-30.25,33.11S758.15,167.22,773.8,167.22Z" transform="translate(0)"/><path class="cls-1" d="M831.46,63.82H842V175.2H831.46Z" transform="translate(0)"/><path class="cls-1" d="M934.11,175.2H923.57V160.75c-5,10.39-15.8,15.81-28,15.81-18.66,0-33.41-11.44-33.41-35.52V93h10.39v46.81c0,18.21,9.93,27.54,25,27.54,15.35,0,26-9.63,26-29.65V93h10.54Z" transform="translate(0)"/><path class="cls-1" d="M958.19,101.9H946.75V93h11.44V72.4h10.69V93h22.58v8.88H968.88v51c0,10.08,3.46,13.24,12.94,13.24h9.64v9H980.17c-14.3,0-22-5.87-22-22.27Z" transform="translate(0)"/><path class="cls-1" d="M1003.35,69.69a7.68,7.68,0,1,1,15.35,0,7.68,7.68,0,1,1-15.35,0ZM1005.76,93h10.53V175.2h-10.53Z" transform="translate(0)"/><path class="cls-1" d="M1073.19,176.41c-23.18,0-40.79-16.26-40.79-42.3,0-26.19,18.06-42.29,41.09-42.29,23.18,0,41.09,16.1,41.09,42.29C1114.58,160.15,1096.36,176.41,1073.19,176.41Zm0-9.19c15.5,0,30.55-10.53,30.55-33.11S1089,101,1073.34,101s-30.26,10.53-30.26,33.11S1057.53,167.22,1073.19,167.22Z" transform="translate(0)"/><path class="cls-1" d="M1192.4,128.24c0-18.21-9.94-27.54-25-27.54-15.35,0-26,9.63-26,29.65V175.2h-10.53V93h10.53v14c5.27-10.24,15.81-15.51,28-15.51,18.66,0,33.41,11.44,33.41,35.53V175.2H1192.4Z" transform="translate(0)"/><path class="cls-1" d="M1251.4,176.41c-18.66,0-31.76-9.34-33.11-24.39h10.84c.9,9,8.73,15.51,22.12,15.51,11.74,0,18.37-6.33,18.37-14.15,0-20.32-49.37-8.43-49.37-39.29,0-12.19,11.59-22.27,28.89-22.27,17.62,0,29.2,9.33,30.11,25.13h-10.54c-.6-9.18-7.37-16.1-19.87-16.1-11,0-17.91,5.87-17.91,13.09,0,22.28,48.62,10.39,49.07,39.44C1280,166.62,1268.41,176.41,1251.4,176.41Z" transform="translate(0)"/><path class="cls-1" d="M171.56,0H8.21A8.22,8.22,0,0,0,0,8.21V122.32a1.27,1.27,0,0,0,0,.32L0,123a8.22,8.22,0,0,0,8.21,8.21H40.78v46.58a8.22,8.22,0,0,0,16.43,0V131.24h65.34v46.58a8.22,8.22,0,0,0,16.44,0v-54.3a7.83,7.83,0,0,0-.16-1.58,8.22,8.22,0,0,0-8.11-7.12H16.66V16.42H163.35V49.05a8.21,8.21,0,0,0,16.42,0V8.21A8.22,8.22,0,0,0,171.56,0Z" transform="translate(0)"/><g class="cls-2"><polygon class="cls-1" points="2.25 0 0 4.34 0 0 2.25 0"/><polygon class="cls-1" points="5.07 0 0 9.79 0 4.34 2.25 0 5.07 0"/><polygon class="cls-1" points="7.9 0 0 15.24 0 9.79 5.07 0 7.9 0"/><polygon class="cls-1" points="10.72 0 0 20.7 0 15.24 7.9 0 10.72 0"/><polygon class="cls-1" points="13.55 0 0 26.15 0 20.7 10.72 0 13.55 0"/><polygon class="cls-1" points="16.38 0 0 31.6 0 26.15 13.55 0 16.38 0"/><polygon class="cls-1" points="19.2 0 0 37.06 0 31.6 16.38 0 19.2 0"/><polygon class="cls-1" points="22.03 0 0 42.51 0 37.06 19.2 0 22.03 0"/><polygon class="cls-1" points="24.85 0 0 47.96 0 42.51 22.03 0 24.85 0"/><polygon class="cls-1" points="27.68 0 0 53.41 0 47.96 24.85 0 27.68 0"/><polygon class="cls-1" points="30.5 0 0 58.87 0 53.41 27.68 0 30.5 0"/><polygon class="cls-1" points="33.33 0 0 64.32 0 58.87 30.5 0 33.33 0"/><polygon class="cls-1" points="36.16 0 0 69.77 0 64.32 33.33 0 36.16 0"/><polygon class="cls-1" points="38.98 0 0 75.23 0 69.77 36.16 0 38.98 0"/><polygon class="cls-1" points="41.81 0 0 80.68 0 75.23 38.98 0 41.81 0"/><polygon class="cls-1" points="44.63 0 0 86.13 0 80.68 41.81 0 44.63 0"/><polygon class="cls-1" points="47.46 0 0 91.58 0 86.13 44.63 0 47.46 0"/><polygon class="cls-1" points="50.28 0 0 97.04 0 91.58 47.46 0 50.28 0"/><polygon class="cls-1" points="53.11 0 0 102.49 0 97.04 50.28 0 53.11 0"/><polygon class="cls-1" points="55.93 0 0 107.94 0 102.49 53.11 0 55.93 0"/><polygon class="cls-1" points="58.76 0 0 113.4 0 107.94 55.93 0 58.76 0"/><polygon class="cls-1" points="61.59 0 0 118.85 0 113.4 58.76 0 61.59 0"/><polygon class="cls-1" points="64.41 0 0 124.3 0 118.85 61.59 0 64.41 0"/><polygon class="cls-1" points="67.24 0 0 129.75 0 124.3 64.41 0 67.24 0"/><polygon class="cls-1" points="70.06 0 0 135.21 0 129.75 67.24 0 70.06 0"/><polygon class="cls-1" points="72.89 0 0 140.66 0 135.21 70.06 0 72.89 0"/><polygon class="cls-1" points="75.71 0 0 146.11 0 140.66 72.89 0 75.71 0"/><polygon class="cls-1" points="78.54 0 0 151.57 0 146.11 75.71 0 78.54 0"/><polygon class="cls-1" points="81.36 0 0 157.02 0 151.57 78.54 0 81.36 0"/><polygon class="cls-1" points="84.19 0 0 162.47 0 157.02 81.36 0 84.19 0"/><polygon class="cls-1" points="87.02 0 0.55 166.87 0 166.59 0 162.47 84.19 0 87.02 0"/><polygon class="cls-1" points="89.84 0 2.77 168.02 0.55 166.87 87.02 0 89.84 0"/><polygon class="cls-1" points="92.67 0 5 169.18 2.77 168.02 89.84 0 92.67 0"/><polygon class="cls-1" points="95.49 0 7.23 170.33 5 169.18 92.67 0 95.49 0"/><polygon class="cls-1" points="98.32 0 9.46 171.49 7.23 170.33 95.49 0 98.32 0"/><polygon class="cls-1" points="101.14 0 11.68 172.64 9.46 171.49 98.32 0 101.14 0"/><polygon class="cls-1" points="103.97 0 13.91 173.8 11.68 172.64 101.14 0 103.97 0"/><polygon class="cls-1" points="106.8 0 16.14 174.95 13.91 173.8 103.97 0 106.8 0"/><polygon class="cls-1" points="109.62 0 18.37 176.1 16.14 174.95 106.8 0 109.62 0"/><polygon class="cls-1" points="112.45 0 20.59 177.26 18.37 176.1 109.62 0 112.45 0"/><polygon class="cls-1" points="115.27 0 22.82 178.41 20.59 177.26 112.45 0 115.27 0"/><polygon class="cls-1" points="118.1 0 25.05 179.57 22.82 178.41 115.27 0 118.1 0"/><polygon class="cls-1" points="120.92 0 27.28 180.72 25.05 179.57 118.1 0 120.92 0"/><polygon class="cls-1" points="123.75 0 29.5 181.88 27.28 180.72 120.92 0 123.75 0"/><polygon class="cls-1" points="126.57 0 31.73 183.03 29.5 181.88 123.75 0 126.57 0"/><polygon class="cls-1" points="129.4 0 33.96 184.18 31.73 183.03 126.57 0 129.4 0"/><polygon class="cls-1" points="132.23 0 36.19 185.34 33.96 184.18 129.4 0 132.23 0"/><polygon class="cls-1" points="135.05 0 38.71 185.93 37.32 185.93 36.19 185.34 132.23 0 135.05 0"/><polygon class="cls-1" points="137.88 0 41.53 185.93 38.71 185.93 135.05 0 137.88 0"/><polygon class="cls-1" points="140.7 0 44.36 185.93 41.53 185.93 137.88 0 140.7 0"/><polygon class="cls-1" points="143.53 0 47.18 185.93 44.36 185.93 140.7 0 143.53 0"/><polygon class="cls-1" points="146.35 0 50.01 185.93 47.18 185.93 143.53 0 146.35 0"/><polygon class="cls-1" points="149.18 0 52.84 185.93 50.01 185.93 146.35 0 149.18 0"/><polygon class="cls-1" points="152 0 55.66 185.93 52.84 185.93 149.18 0 152 0"/><polygon class="cls-1" points="154.83 0 58.49 185.93 55.66 185.93 152 0 154.83 0"/><polygon class="cls-1" points="157.66 0 61.31 185.93 58.49 185.93 154.83 0 157.66 0"/><polygon class="cls-1" points="160.48 0 64.14 185.93 61.31 185.93 157.66 0 160.48 0"/><polygon class="cls-1" points="163.31 0 66.96 185.93 64.14 185.93 160.48 0 163.31 0"/><polygon class="cls-1" points="166.13 0 69.79 185.93 66.96 185.93 163.31 0 166.13 0"/><polygon class="cls-1" points="168.96 0 72.61 185.93 69.79 185.93 166.13 0 168.96 0"/><polygon class="cls-1" points="171.78 0 75.44 185.93 72.61 185.93 168.96 0 171.78 0"/><polygon class="cls-1" points="174.61 0 78.27 185.93 75.44 185.93 171.78 0 174.61 0"/><polygon class="cls-1" points="177.44 0 81.09 185.93 78.27 185.93 174.61 0 177.44 0"/><polygon class="cls-1" points="179.77 0.95 83.92 185.93 81.09 185.93 177.44 0 179.77 0 179.77 0.95"/><polygon class="cls-1" points="179.77 6.4 86.74 185.93 83.92 185.93 179.77 0.95 179.77 6.4"/><polygon class="cls-1" points="179.77 11.86 89.57 185.93 86.74 185.93 179.77 6.4 179.77 11.86"/><polygon class="cls-1" points="179.77 17.31 92.39 185.93 89.57 185.93 179.77 11.86 179.77 17.31"/><polygon class="cls-1" points="179.77 22.76 95.22 185.93 92.39 185.93 179.77 17.31 179.77 22.76"/><polygon class="cls-1" points="179.77 28.22 98.04 185.93 95.22 185.93 179.77 22.76 179.77 28.22"/><polygon class="cls-1" points="179.77 33.67 100.87 185.93 98.04 185.93 179.77 28.22 179.77 33.67"/><polygon class="cls-1" points="179.77 39.12 103.7 185.93 100.87 185.93 179.77 33.67 179.77 39.12"/><polygon class="cls-1" points="179.77 44.58 106.52 185.93 103.7 185.93 179.77 39.12 179.77 44.58"/><polygon class="cls-1" points="179.77 50.03 109.35 185.93 106.52 185.93 179.77 44.58 179.77 50.03"/><polygon class="cls-1" points="179.77 55.48 112.17 185.93 109.35 185.93 179.77 50.03 179.77 55.48"/><polygon class="cls-1" points="179.77 60.93 115 185.93 112.17 185.93 179.77 55.48 179.77 60.93"/><polygon class="cls-1" points="179.77 66.39 117.82 185.93 115 185.93 179.77 60.93 179.77 66.39"/><polygon class="cls-1" points="179.77 71.84 120.65 185.93 117.82 185.93 179.77 66.39 179.77 71.84"/><polygon class="cls-1" points="179.77 77.29 123.47 185.93 120.65 185.93 179.77 71.84 179.77 77.29"/><polygon class="cls-1" points="179.77 82.75 126.3 185.93 123.47 185.93 179.77 77.29 179.77 82.75"/><polygon class="cls-1" points="179.77 88.2 129.13 185.93 126.3 185.93 179.77 82.75 179.77 88.2"/><polygon class="cls-1" points="179.77 93.65 131.95 185.93 129.13 185.93 179.77 88.2 179.77 93.65"/><polygon class="cls-1" points="179.77 99.1 134.78 185.93 131.95 185.93 179.77 93.65 179.77 99.1"/><polygon class="cls-1" points="179.77 104.56 137.6 185.93 134.78 185.93 179.77 99.1 179.77 104.56"/><polygon class="cls-1" points="179.77 110.01 140.43 185.93 137.6 185.93 179.77 104.56 179.77 110.01"/><polygon class="cls-1" points="179.77 115.46 143.25 185.93 140.43 185.93 179.77 110.01 179.77 115.46"/><polygon class="cls-1" points="179.77 120.92 146.08 185.93 143.25 185.93 179.77 115.46 179.77 120.92"/><polygon class="cls-1" points="179.77 126.37 148.91 185.93 146.08 185.93 179.77 120.92 179.77 126.37"/><polygon class="cls-1" points="148.91 185.93 179.77 126.37 179.77 185.93 148.91 185.93"/></g><path class="cls-1" d="M171.56,92.18H139V46.31a8.22,8.22,0,0,0-16.44,0V92.18H57.21V46.42a8.22,8.22,0,1,0-16.43,0v54.19a8.17,8.17,0,0,0,8.33,8.11,5.47,5.47,0,0,0,1.2-.12l78.89,0a8.48,8.48,0,0,0,1.68.15,5.57,5.57,0,0,0,1.21-.12h31.26V207H16.42V174.36a8.21,8.21,0,0,0-16.42,0V215.2a8.22,8.22,0,0,0,8.21,8.21H171.56a8.2,8.2,0,0,0,8.18-8.3l0-111.35a8,8,0,0,0-.2-1.69,7.91,7.91,0,0,0,.2-1.68A8.22,8.22,0,0,0,171.56,92.18Z" transform="translate(0)"/><g class="cls-3"><polygon class="cls-1" points="2.23 38.2 0 42.51 0 38.2 2.23 38.2"/><polygon class="cls-1" points="5.06 38.2 0 47.96 0 42.51 2.23 38.2 5.06 38.2"/><polygon class="cls-1" points="7.88 38.2 0 53.41 0 47.96 5.06 38.2 7.88 38.2"/><polygon class="cls-1" points="10.71 38.2 0 58.87 0 53.41 7.88 38.2 10.71 38.2"/><polygon class="cls-1" points="13.53 38.2 0 64.32 0 58.87 10.71 38.2 13.53 38.2"/><polygon class="cls-1" points="16.36 38.2 0 69.77 0 64.32 13.53 38.2 16.36 38.2"/><polygon class="cls-1" points="19.18 38.2 0 75.23 0 69.77 16.36 38.2 19.18 38.2"/><polygon class="cls-1" points="22.01 38.2 0 80.68 0 75.23 19.18 38.2 22.01 38.2"/><polygon class="cls-1" points="24.84 38.2 0 86.13 0 80.68 22.01 38.2 24.84 38.2"/><polygon class="cls-1" points="27.66 38.2 0 91.58 0 86.13 24.84 38.2 27.66 38.2"/><polygon class="cls-1" points="30.49 38.2 0 97.04 0 91.58 27.66 38.2 30.49 38.2"/><polygon class="cls-1" points="33.31 38.2 0 102.49 0 97.04 30.49 38.2 33.31 38.2"/><polygon class="cls-1" points="36.14 38.2 0 107.94 0 102.49 33.31 38.2 36.14 38.2"/><polygon class="cls-1" points="38.96 38.2 0 113.4 0 107.94 36.14 38.2 38.96 38.2"/><polygon class="cls-1" points="41.79 38.2 0 118.85 0 113.4 38.96 38.2 41.79 38.2"/><polygon class="cls-1" points="44.62 38.2 0 124.3 0 118.85 41.79 38.2 44.62 38.2"/><polygon class="cls-1" points="47.44 38.2 0 129.75 0 124.3 44.62 38.2 47.44 38.2"/><polygon class="cls-1" points="50.27 38.2 0 135.21 0 129.75 47.44 38.2 50.27 38.2"/><polygon class="cls-1" points="53.09 38.2 0 140.66 0 135.21 50.27 38.2 53.09 38.2"/><polygon class="cls-1" points="55.92 38.2 0 146.11 0 140.66 53.09 38.2 55.92 38.2"/><polygon class="cls-1" points="58.74 38.2 0 151.57 0 146.11 55.92 38.2 58.74 38.2"/><polygon class="cls-1" points="61.57 38.2 0 157.02 0 151.57 58.74 38.2 61.57 38.2"/><polygon class="cls-1" points="64.39 38.2 0 162.47 0 157.02 61.57 38.2 64.39 38.2"/><polygon class="cls-1" points="67.22 38.2 0 167.93 0 162.47 64.39 38.2 67.22 38.2"/><polygon class="cls-1" points="70.05 38.2 0 173.38 0 167.93 67.22 38.2 70.05 38.2"/><polygon class="cls-1" points="72.87 38.2 0 178.83 0 173.38 70.05 38.2 72.87 38.2"/><polygon class="cls-1" points="75.7 38.2 0 184.28 0 178.83 72.87 38.2 75.7 38.2"/><polygon class="cls-1" points="78.52 38.2 0 189.74 0 184.28 75.7 38.2 78.52 38.2"/><polygon class="cls-1" points="81.35 38.2 0 195.19 0 189.74 78.52 38.2 81.35 38.2"/><polygon class="cls-1" points="84.17 38.2 0 200.64 0 195.19 81.35 38.2 84.17 38.2"/><polygon class="cls-1" points="87 38.2 0 206.1 0 200.64 84.17 38.2 87 38.2"/><polygon class="cls-1" points="89.82 38.2 0 211.55 0 206.1 87 38.2 89.82 38.2"/><polygon class="cls-1" points="92.65 38.2 0 217 0 211.55 89.82 38.2 92.65 38.2"/><polygon class="cls-1" points="95.48 38.2 0 222.46 0 217 92.65 38.2 95.48 38.2"/><polygon class="cls-1" points="98.3 38.2 2.33 223.41 0 223.41 0 222.46 95.48 38.2 98.3 38.2"/><polygon class="cls-1" points="101.13 38.2 5.16 223.41 2.33 223.41 98.3 38.2 101.13 38.2"/><polygon class="cls-1" points="103.95 38.2 7.98 223.41 5.16 223.41 101.13 38.2 103.95 38.2"/><polygon class="cls-1" points="106.78 38.2 10.81 223.41 7.98 223.41 103.95 38.2 106.78 38.2"/><polygon class="cls-1" points="109.6 38.2 13.63 223.41 10.81 223.41 106.78 38.2 109.6 38.2"/><polygon class="cls-1" points="112.43 38.2 16.46 223.41 13.63 223.41 109.6 38.2 112.43 38.2"/><polygon class="cls-1" points="115.25 38.2 19.28 223.41 16.46 223.41 112.43 38.2 115.25 38.2"/><polygon class="cls-1" points="118.08 38.2 22.11 223.41 19.28 223.41 115.25 38.2 118.08 38.2"/><polygon class="cls-1" points="120.91 38.2 24.93 223.41 22.11 223.41 118.08 38.2 120.91 38.2"/><polygon class="cls-1" points="123.73 38.2 27.76 223.41 24.93 223.41 120.91 38.2 123.73 38.2"/><polygon class="cls-1" points="126.56 38.2 30.59 223.41 27.76 223.41 123.73 38.2 126.56 38.2"/><polygon class="cls-1" points="129.38 38.2 33.41 223.41 30.59 223.41 126.56 38.2 129.38 38.2"/><polygon class="cls-1" points="132.21 38.2 36.24 223.41 33.41 223.41 129.38 38.2 132.21 38.2"/><polygon class="cls-1" points="135.03 38.2 39.06 223.41 36.24 223.41 132.21 38.2 135.03 38.2"/><polygon class="cls-1" points="137.86 38.2 41.89 223.41 39.06 223.41 135.03 38.2 137.86 38.2"/><polygon class="cls-1" points="140.69 38.2 44.71 223.41 41.89 223.41 137.86 38.2 140.69 38.2"/><polygon class="cls-1" points="142.44 38.2 143.28 38.64 47.54 223.41 44.71 223.41 140.69 38.2 142.44 38.2"/><polygon class="cls-1" points="143.28 38.64 145.51 39.79 50.36 223.41 47.54 223.41 143.28 38.64"/><polygon class="cls-1" points="145.51 39.79 147.74 40.95 53.19 223.41 50.36 223.41 145.51 39.79"/><polygon class="cls-1" points="147.74 40.95 149.97 42.1 56.02 223.41 53.19 223.41 147.74 40.95"/><polygon class="cls-1" points="149.97 42.1 152.19 43.26 58.84 223.41 56.02 223.41 149.97 42.1"/><polygon class="cls-1" points="152.19 43.26 154.42 44.41 61.67 223.41 58.84 223.41 152.19 43.26"/><polygon class="cls-1" points="154.42 44.41 156.65 45.56 64.49 223.41 61.67 223.41 154.42 44.41"/><polygon class="cls-1" points="156.65 45.56 158.88 46.72 67.32 223.41 64.49 223.41 156.65 45.56"/><polygon class="cls-1" points="158.88 46.72 161.1 47.87 70.14 223.41 67.32 223.41 158.88 46.72"/><polygon class="cls-1" points="161.1 47.87 163.33 49.03 72.97 223.41 70.14 223.41 161.1 47.87"/><polygon class="cls-1" points="163.33 49.03 165.56 50.18 75.8 223.41 72.97 223.41 163.33 49.03"/><polygon class="cls-1" points="165.56 50.18 167.79 51.34 78.62 223.41 75.8 223.41 165.56 50.18"/><polygon class="cls-1" points="167.79 51.34 170.01 52.49 81.45 223.41 78.62 223.41 167.79 51.34"/><polygon class="cls-1" points="170.01 52.49 172.24 53.65 84.27 223.41 81.45 223.41 170.01 52.49"/><polygon class="cls-1" points="172.24 53.65 174.47 54.8 87.1 223.41 84.27 223.41 172.24 53.65"/><polygon class="cls-1" points="174.47 54.8 176.7 55.95 89.92 223.41 87.1 223.41 174.47 54.8"/><polygon class="cls-1" points="176.7 55.95 178.93 57.11 92.75 223.41 89.92 223.41 176.7 55.95"/><polygon class="cls-1" points="178.93 57.11 179.77 57.54 179.77 60.93 95.57 223.41 92.75 223.41 178.93 57.11"/><polygon class="cls-1" points="179.77 66.39 98.4 223.41 95.57 223.41 179.77 60.93 179.77 66.39"/><polygon class="cls-1" points="179.77 71.84 101.22 223.41 98.4 223.41 179.77 66.39 179.77 71.84"/><polygon class="cls-1" points="179.77 77.29 104.05 223.41 101.22 223.41 179.77 71.84 179.77 77.29"/><polygon class="cls-1" points="179.77 82.75 106.88 223.41 104.05 223.41 179.77 77.29 179.77 82.75"/><polygon class="cls-1" points="179.77 88.2 109.7 223.41 106.88 223.41 179.77 82.75 179.77 88.2"/><polygon class="cls-1" points="179.77 93.65 112.53 223.41 109.7 223.41 179.77 88.2 179.77 93.65"/><polygon class="cls-1" points="179.77 99.1 115.35 223.41 112.53 223.41 179.77 93.65 179.77 99.1"/><polygon class="cls-1" points="179.77 104.56 118.18 223.41 115.35 223.41 179.77 99.1 179.77 104.56"/><polygon class="cls-1" points="179.77 110.01 121 223.41 118.18 223.41 179.77 104.56 179.77 110.01"/><polygon class="cls-1" points="179.77 115.46 123.83 223.41 121 223.41 179.77 110.01 179.77 115.46"/><polygon class="cls-1" points="179.77 120.92 126.66 223.41 123.83 223.41 179.77 115.46 179.77 120.92"/><polygon class="cls-1" points="179.77 126.37 129.48 223.41 126.66 223.41 179.77 120.92 179.77 126.37"/><polygon class="cls-1" points="129.48 223.41 179.77 126.37 179.77 223.41 129.48 223.41"/></g></g></g></svg>