<svg xmlns="http://www.w3.org/2000/svg" viewBox="0 0 1280 141.48"><defs><style>.cls-1{fill:#fff;}</style></defs><g id="Layer_2" data-name="Layer 2"><g id="Layer_1-2" data-name="Layer 1"><path class="cls-1" d="M82,83.29H21.19V139.8H0V10.6H21.19V66H82V10.6h21.2V139.8H82Z"/><path class="cls-1" d="M168.62,35.69c17.29,0,29.19,8.19,35.51,16.55V37.37h21.38V139.8H204.13V124.56c-6.51,8.73-18.78,16.92-35.88,16.92-26.59,0-48-21.76-48-53.36S141.66,35.69,168.62,35.69Zm4.46,18.41c-15.8,0-31.05,11.9-31.05,34s15.25,34.95,31.05,34.95c16,0,31-12.45,31-34.58C204.13,66.55,189.07,54.1,173.08,54.1Z"/><path class="cls-1" d="M286.86,141.48c-24.54,0-41.83-14.51-42.76-33.1H266c.74,8.37,8.74,15.25,20.45,15.25,12.27,0,18.77-5.21,18.77-12.27,0-20.08-59.49-8.55-59.49-46.11,0-16.36,15.25-29.56,39.42-29.56,23.24,0,38.48,12.46,39.6,32.91h-21.2c-.74-8.93-7.62-15.06-19.15-15.06-11.34,0-17.29,4.65-17.29,11.53,0,20.63,57.82,9.11,58.94,46.1C326.09,128.46,311,141.48,286.86,141.48Z"/><path class="cls-1" d="M345.24,2.23h21.19v47c7.07-8.55,18.59-13.58,31.79-13.58,22.87,0,40.72,15.06,40.72,43.69V139.8h-21V82.54c0-18.77-10.23-28.44-25.66-28.44-15.61,0-25.84,9.67-25.84,28.44V139.8H345.24Z"/><path class="cls-1" d="M547.14,141.1c-26,0-43.13-14.87-43.88-34.76H517c1.12,10.78,9.11,23.79,30.12,23.79,18,0,28.63-10.59,28.63-24,0-38.29-71.39-14.13-71.39-63,0-20.08,16.54-34.76,41.64-34.76,24.73,0,39.6,13.75,41.83,31.6H573.72c-1.49-9.11-10.22-20.26-28.26-20.45-15.24-.18-27.88,8.18-27.88,23.24,0,37.55,71.39,14.5,71.39,62.83C589,123.26,574.65,141.1,547.14,141.1Z"/><path class="cls-1" d="M654.78,141.29c-28.63,0-50.38-20.08-50.38-52.24,0-32.35,22.31-52.24,50.75-52.24,28.63,0,50.75,19.89,50.75,52.24C705.9,121.21,683.41,141.29,654.78,141.29Zm0-11.34c19.15,0,37.74-13,37.74-40.9S674.3,48.15,655,48.15s-37.37,13-37.37,40.9S635.45,130,654.78,130Z"/><path class="cls-1" d="M726,2.23h13V139.8H726Z"/><path class="cls-1" d="M852.77,139.8h-13V122c-6.13,12.83-19.52,19.53-34.58,19.53-23,0-41.27-14.13-41.27-43.88V38.3h12.83V96.11c0,22.5,12.27,34,30.86,34,19,0,32.16-11.89,32.16-36.62V38.3h13Z"/><path class="cls-1" d="M882.52,49.27H868.39v-11h14.13V12.83h13.2V38.3h27.89v11H895.72v63c0,12.45,4.28,16.36,16,16.36h11.9V139.8H909.67c-17.67,0-27.15-7.25-27.15-27.51Z"/><path class="cls-1" d="M938.3,9.48a9.48,9.48,0,0,1,19,0,9.48,9.48,0,1,1-19,0Zm3,28.82h13V139.8h-13Z"/><path class="cls-1" d="M1024.56,141.29c-28.63,0-50.38-20.08-50.38-52.24,0-32.35,22.3-52.24,50.75-52.24,28.63,0,50.75,19.89,50.75,52.24C1075.68,121.21,1053.19,141.29,1024.56,141.29Zm0-11.34c19.14,0,37.74-13,37.74-40.9s-18.22-40.9-37.56-40.9-37.37,13-37.37,40.9S1005.22,130,1024.56,130Z"/><path class="cls-1" d="M1171.8,81.8c0-22.5-12.27-34-30.86-34-19,0-32.16,11.89-32.16,36.62v55.4h-13V38.3h13V55.59c6.5-12.65,19.52-19.15,34.58-19.15,23.05,0,41.27,14.13,41.27,43.87V139.8H1171.8Z"/><path class="cls-1" d="M1244.68,141.29c-23,0-39.23-11.53-40.9-30.12h13.38c1.12,11.16,10.79,19.15,27.33,19.15,14.5,0,22.68-7.81,22.68-17.47,0-25.1-61-10.42-61-48.53,0-15,14.31-27.51,35.69-27.51,21.75,0,36.07,11.53,37.18,31.05h-13c-.75-11.35-9.11-19.9-24.54-19.9-13.57,0-22.12,7.25-22.12,16.18,0,27.51,60,12.83,60.6,48.71C1280,129.21,1265.69,141.29,1244.68,141.29Z"/></g></g></svg>