<svg xmlns="http://www.w3.org/2000/svg" viewBox="0 0 1280 385.57"><g id="Layer_2" data-name="Layer 2"><g id="Layer_1-2" data-name="Layer 1"><path d="M448,385.28c-20.43,0-33.85-11.67-34.44-27.28h10.8c.88,8.46,7.15,18.67,23.64,18.67,14.15,0,22.47-8.31,22.47-18.82,0-30.06-56-11.09-56-49.47,0-15.75,13-27.28,32.68-27.28,19.41,0,31.08,10.8,32.83,24.81H468.9c-1.16-7.15-8-15.91-22.18-16.06-12-.14-21.88,6.42-21.88,18.24,0,29.48,56,11.38,56,49.32C480.87,371.27,469.63,385.28,448,385.28Z"/><path d="M564.62,385.43c-22.47,0-39.55-15.76-39.55-41s17.51-41,39.84-41,39.83,15.61,39.83,41S587.09,385.43,564.62,385.43Zm0-8.9c15,0,29.62-10.22,29.62-32.1s-14.3-32.1-29.48-32.1-29.33,10.21-29.33,32.1S549.44,376.53,564.62,376.53Z"/><path d="M652.6,276.28h10.21v108H652.6Z"/><path d="M784.21,384.26H774v-14c-4.82,10.07-15.33,15.32-27.14,15.32-18.1,0-32.4-11.09-32.4-34.43V304.59h10.07V350c0,17.66,9.63,26.7,24.22,26.7,14.89,0,25.25-9.34,25.25-28.74V304.59h10.21Z"/><path d="M839.65,313.2H828.56v-8.61h11.09v-20H850v20H871.9v8.61H850v49.46c0,9.78,3.36,12.85,12.55,12.85h9.34v8.75H861c-13.86,0-21.3-5.69-21.3-21.6Z"/><path d="M915.52,282a7.44,7.44,0,1,1,14.88,0,7.44,7.44,0,1,1-14.88,0Zm2.34,22.61h10.21v79.67H917.86Z"/><path d="M1015.32,385.43c-22.47,0-39.54-15.76-39.54-41s17.51-41,39.83-41,39.84,15.61,39.84,41S1037.79,385.43,1015.32,385.43Zm0-8.9c15,0,29.62-10.22,29.62-32.1s-14.3-32.1-29.47-32.1-29.33,10.21-29.33,32.1S1000.15,376.53,1015.32,376.53Z"/><path d="M1163,338.73c0-17.65-9.63-26.7-24.22-26.7-14.88,0-25.24,9.34-25.24,28.75v43.48H1103.3V304.59h10.22v13.57c5.1-9.92,15.32-15,27.14-15,18.09,0,32.39,11.09,32.39,34.44v46.69H1163Z"/><path d="M1252.28,385.43c-18.1,0-30.79-9.05-32.1-23.64h10.5c.88,8.75,8.46,15,21.45,15,11.38,0,17.8-6.13,17.8-13.72,0-19.7-47.86-8.17-47.86-38.08,0-11.82,11.24-21.59,28-21.59,17.07,0,28.3,9,29.18,24.36h-10.21c-.59-8.9-7.15-15.61-19.26-15.61-10.66,0-17.37,5.69-17.37,12.69,0,21.6,47.13,10.07,47.57,38.23C1280,375.94,1268.76,385.43,1252.28,385.43Z"/><path d="M573.26,149.63H453V261.46H411V5.79H453V115.41H573.26V5.79H615.2V261.46H573.26Z"/><path d="M744.66,55.45c34.21,0,57.76,16.19,70.27,32.74V58.76h42.3v202.7h-42.3V231.29c-12.88,17.29-37.16,33.48-71,33.48-52.61,0-94.91-43-94.91-105.58S691.32,55.45,744.66,55.45Zm8.83,36.42c-31.27,0-61.43,23.54-61.43,67.32s30.16,69.16,61.43,69.16c31.64,0,61.44-24.65,61.44-68.42C814.93,116.52,785.13,91.87,753.49,91.87Z"/><path d="M978.61,264.77c-48.56,0-82.77-28.7-84.61-65.48h43.4c1.48,16.55,17.3,30.16,40.47,30.16,24.28,0,37.16-10.3,37.16-24.27,0-39.74-117.72-16.93-117.72-91.24,0-32.37,30.16-58.49,78-58.49,46,0,76.15,24.65,78.35,65.11h-41.93c-1.48-17.66-15.09-29.79-37.9-29.79-22.44,0-34.21,9.19-34.21,22.8,0,40.84,114.41,18,116.62,91.24C1056.23,239,1026.43,264.77,978.61,264.77Z"/><path d="M1094.1,0H1136V82.3c14-16.92,36.79-26.85,62.9-26.85,45.25,0,80.57,29.8,80.57,86.45V261.46h-41.57V148.16c0-37.16-20.23-56.29-50.77-56.29-30.9,0-51.13,19.13-51.13,56.29v113.3H1094.1Z"/><path d="M292.75,4.33H14a14,14,0,0,0-14,14V213.06a1.73,1.73,0,0,0,.06.54l-.06.67a14,14,0,0,0,14,14H69.59v79.49a14,14,0,0,0,28,0V228.28h111.5v79.49a14,14,0,0,0,28.05,0V215.11a13.48,13.48,0,0,0-.28-2.7,14,14,0,0,0-13.83-12.15H28.43V32.36H278.74V88a14,14,0,1,0,28,0V18.34A14,14,0,0,0,292.75,4.33Z"/><path d="M292.75,161.63H237.18V83.36a14,14,0,0,0-28.05,0v78.27H97.63V83.55a14,14,0,1,0-28,0V176a13.93,13.93,0,0,0,14.2,13.84,9.51,9.51,0,0,0,2.07-.21l134.61,0a15.67,15.67,0,0,0,2.87.25,9.66,9.66,0,0,0,2.07-.21h53.33v167.9H28V301.88a14,14,0,0,0-28,0v69.69a14,14,0,0,0,14,14H292.75a14,14,0,0,0,14-14.17l0-190a13,13,0,0,0-.33-2.87,13.13,13.13,0,0,0,.33-2.88A14,14,0,0,0,292.75,161.63Z"/></g></g></svg>