<svg xmlns="http://www.w3.org/2000/svg" viewBox="0 0 868.97 385.57"><g id="Layer_2" data-name="Layer 2"><g id="Layer_1-2" data-name="Layer 1"><path d="M37,385.28c-20.43,0-33.85-11.67-34.44-27.28h10.8c.88,8.46,7.15,18.67,23.64,18.67,14.15,0,22.47-8.31,22.47-18.82,0-30.06-56-11.09-56-49.47,0-15.75,13-27.28,32.68-27.28,19.41,0,31.08,10.8,32.84,24.81H57.88c-1.17-7.15-8-15.91-22.18-16.06-12-.14-21.89,6.42-21.89,18.24,0,29.48,56,11.38,56,49.32C69.84,371.27,58.61,385.28,37,385.28Z"/><path d="M153.59,385.43c-22.47,0-39.54-15.76-39.54-41s17.51-41,39.83-41c22.47,0,39.84,15.61,39.84,41S176.06,385.43,153.59,385.43Zm0-8.9c15,0,29.62-10.22,29.62-32.1s-14.3-32.1-29.47-32.1-29.33,10.21-29.33,32.1S138.41,376.53,153.59,376.53Z"/><path d="M241.57,276.28h10.21v108H241.57Z"/><path d="M373.18,384.26H363v-14c-4.82,10.07-15.32,15.32-27.14,15.32-18.1,0-32.4-11.09-32.4-34.43V304.59H313.5V350c0,17.66,9.63,26.7,24.22,26.7,14.89,0,25.25-9.34,25.25-28.74V304.59h10.21Z"/><path d="M428.62,313.2H417.53v-8.61h11.09v-20H439v20h21.89v8.61H439v49.46c0,9.78,3.36,12.85,12.55,12.85h9.34v8.75H449.93c-13.87,0-21.31-5.69-21.31-21.6Z"/><path d="M504.49,282a7.45,7.45,0,1,1,14.89,0,7.45,7.45,0,1,1-14.89,0Zm2.34,22.61H517v79.67H506.83Z"/><path d="M604.29,385.43c-22.47,0-39.54-15.76-39.54-41s17.51-41,39.84-41,39.83,15.61,39.83,41S626.76,385.43,604.29,385.43Zm0-8.9c15,0,29.62-10.22,29.62-32.1s-14.3-32.1-29.47-32.1-29.33,10.21-29.33,32.1S589.12,376.53,604.29,376.53Z"/><path d="M752,338.73c0-17.65-9.63-26.7-24.22-26.7-14.88,0-25.24,9.34-25.24,28.75v43.48H692.27V304.59h10.22v13.57c5.11-9.92,15.32-15,27.14-15,18.09,0,32.39,11.09,32.39,34.44v46.69H752Z"/><path d="M841.25,385.43c-18.1,0-30.79-9.05-32.1-23.64h10.5c.88,8.75,8.47,15,21.45,15,11.38,0,17.8-6.13,17.8-13.72,0-19.7-47.86-8.17-47.86-38.08,0-11.82,11.24-21.59,28-21.59,17.07,0,28.31,9,29.18,24.36H858c-.59-8.9-7.15-15.61-19.26-15.61-10.65,0-17.37,5.69-17.37,12.69,0,21.6,47.13,10.07,47.57,38.23C869,375.94,857.74,385.43,841.25,385.43Z"/><path d="M162.23,149.63H41.94V261.46H0V5.79H41.94V115.41H162.23V5.79h41.94V261.46H162.23Z"/><path d="M333.63,55.45c34.22,0,57.76,16.19,70.27,32.74V58.76h42.3v202.7H403.9V231.29c-12.88,17.29-37.16,33.48-71,33.48-52.61,0-94.91-43-94.91-105.58S280.29,55.45,333.63,55.45Zm8.83,36.42c-31.27,0-61.43,23.54-61.43,67.32s30.16,69.16,61.43,69.16c31.64,0,61.44-24.65,61.44-68.42C403.9,116.52,374.1,91.87,342.46,91.87Z"/><path d="M567.58,264.77c-48.56,0-82.77-28.7-84.61-65.48h43.41c1.47,16.55,17.29,30.16,40.46,30.16,24.28,0,37.16-10.3,37.16-24.27,0-39.74-117.72-16.93-117.72-91.24,0-32.37,30.16-58.49,78-58.49,46,0,76.15,24.65,78.35,65.11H600.69c-1.47-17.66-15.09-29.79-37.89-29.79-22.44,0-34.22,9.19-34.22,22.8,0,40.84,114.41,18,116.62,91.24C645.2,239,615.4,264.77,567.58,264.77Z"/><path d="M683.07,0H725V82.3c14-16.92,36.79-26.85,62.91-26.85,45.24,0,80.56,29.8,80.56,86.45V261.46H826.91V148.16c0-37.16-20.23-56.29-50.77-56.29C745.24,91.87,725,111,725,148.16v113.3H683.07Z"/></g></g></svg>