<svg xmlns="http://www.w3.org/2000/svg" xmlns:xlink="http://www.w3.org/1999/xlink" viewBox="0 0 1280 376.1"><defs><style>.cls-1{fill:none;}.cls-2{fill:#fff;}.cls-3{clip-path:url(#clip-path);}.cls-4{fill:#1d8ccc;}.cls-5{fill:#1d8dcc;}.cls-6{fill:#1e8dcc;}.cls-7{fill:#1e8ecc;}.cls-8{fill:#1e8fcc;}.cls-9{fill:#1f90cc;}.cls-10{fill:#1f91cc;}.cls-11{fill:#1f92cc;}.cls-12{fill:#2093cd;}.cls-13{fill:#2094cd;}.cls-14{fill:#2095cd;}.cls-15{fill:#2096cd;}.cls-16{fill:#2097cd;}.cls-17{fill:#2098ce;}.cls-18{fill:#2199ce;}.cls-19{fill:#219ace;}.cls-20{fill:#219bce;}.cls-21{fill:#219cce;}.cls-22{fill:#219ccf;}.cls-23{fill:#229dcf;}.cls-24{fill:#229ecf;}.cls-25{fill:#229fcf;}.cls-26{fill:#239fcf;}.cls-27{fill:#23a0cf;}.cls-28{fill:#23a0d0;}.cls-29{fill:#23a1d0;}.cls-30{fill:#23a2d0;}.cls-31{fill:#24a2d0;}.cls-32{fill:#24a3d0;}.cls-33{fill:#24a4d0;}.cls-34{fill:#25a5d0;}.cls-35{fill:#25a6d1;}.cls-36{fill:#25a7d1;}.cls-37{fill:#26a8d1;}.cls-38{fill:#26a9d1;}.cls-39{fill:#26aad1;}.cls-40{fill:#27aad1;}.cls-41{fill:#27abd1;}.cls-42{fill:#27acd2;}.cls-43{fill:#27add2;}.cls-44{fill:#28add2;}.cls-45{fill:#28aed2;}.cls-46{fill:#28afd2;}.cls-47{fill:#29b0d2;}.cls-48{fill:#29b1d2;}.cls-49{fill:#29b2d3;}.cls-50{fill:#2ab2d3;}.cls-51{fill:#2ab3d3;}.cls-52{fill:#2bb4d3;}.cls-53{fill:#2bb5d3;}.cls-54{fill:#2bb6d3;}.cls-55{fill:#2cb6d3;}.cls-56{fill:#2cb7d3;}.cls-57{fill:#2cb8d3;}.cls-58{fill:#2db9d4;}.cls-59{fill:#2dbad4;}.cls-60{fill:#2dbbd4;}.cls-61{fill:#2dbcd4;}.cls-62{fill:#2dbdd4;}.cls-63{fill:#2dbed5;}.cls-64{fill:#2cbfd5;}.cls-65{fill:#2cc1d6;}.cls-66{clip-path:url(#clip-path-2);}</style><clipPath id="clip-path" transform="translate(0)"><path class="cls-1" d="M280.17,8.93H13.41A13.43,13.43,0,0,0,0,22.34V208.69a2.09,2.09,0,0,0,.05.52l0,.64a13.42,13.42,0,0,0,13.41,13.41H66.6v76.07a13.42,13.42,0,0,0,26.84,0V223.26h106.7v76.07a13.43,13.43,0,0,0,26.85,0V210.66a12.4,12.4,0,0,0-.27-2.59,13.43,13.43,0,0,0-13.24-11.63H27.2V35.75H266.76V89a13.41,13.41,0,1,0,26.82,0V22.34A13.42,13.42,0,0,0,280.17,8.93Z"/></clipPath><clipPath id="clip-path-2" transform="translate(0)"><path class="cls-1" d="M280.17,159.47H227V84.57a13.43,13.43,0,0,0-26.85,0v74.9H93.44V84.75a13.42,13.42,0,1,0-26.84,0v88.49a13.34,13.34,0,0,0,13.59,13.24,8.27,8.27,0,0,0,2-.2l128.83,0a14.56,14.56,0,0,0,2.75.23,8.3,8.3,0,0,0,2-.2h51V347H26.82V293.69a13.41,13.41,0,0,0-26.82,0v66.7a13.42,13.42,0,0,0,13.41,13.4H280.17a13.39,13.39,0,0,0,13.37-13.56l0-181.84a12.52,12.52,0,0,0-.32-2.76,12.5,12.5,0,0,0,.32-2.75A13.42,13.42,0,0,0,280.17,159.47Z"/></clipPath></defs><g id="Layer_2" data-name="Layer 2"><g id="Layer_1-2" data-name="Layer 1"><path class="cls-2" d="M493.64,95.34H422.13v66.48H397.2V9.84h24.93V75h71.51V9.84h24.93v152H493.64Z" transform="translate(0)"/><path class="cls-2" d="M595.52,39.36c20.34,0,34.33,9.62,41.77,19.46V41.33h25.15V161.82H637.29V143.88c-7.65,10.28-22.09,19.9-42.2,19.9-31.27,0-56.42-25.58-56.42-62.75S563.82,39.36,595.52,39.36ZM600.77,61c-18.59,0-36.52,14-36.52,40s17.93,41.1,36.52,41.1c18.81,0,36.52-14.65,36.52-40.67C637.29,75.66,619.58,61,600.77,61Z" transform="translate(0)"/><path class="cls-2" d="M734.58,163.78c-28.86,0-49.2-17.05-50.29-38.92h25.8c.88,9.84,10.28,17.93,24.06,17.93,14.43,0,22.08-6.12,22.08-14.43,0-23.62-70-10.06-70-54.23,0-19.24,17.93-34.77,46.36-34.77,27.33,0,45.26,14.65,46.57,38.7H754.27c-.88-10.49-9-17.71-22.53-17.71-13.34,0-20.33,5.47-20.33,13.56,0,24.27,68,10.72,69.31,54.23C780.72,148.48,763,163.78,734.58,163.78Z" transform="translate(0)"/><path class="cls-2" d="M803.24,0h24.93V55.32c8.3-10.06,21.86-16,37.39-16,26.89,0,47.89,17.71,47.89,51.39v71.07H888.74V94.47c0-22.09-12-33.46-30.18-33.46-18.37,0-30.39,11.37-30.39,33.46v67.35H803.24Z" transform="translate(0)"/><path class="cls-2" d="M442.82,375.68c-29.74,0-49.27-17-50.12-39.71h15.71c1.28,12.32,10.41,27.18,34.41,27.18,20.6,0,32.7-12.1,32.7-27.4,0-43.74-81.55-16.14-81.55-72,0-22.93,18.9-39.71,47.57-39.71,28.25,0,45.24,15.71,47.78,36.1H473.18c-1.69-10.4-11.68-23.15-32.28-23.36-17.41-.21-31.85,9.35-31.85,26.55,0,42.9,81.55,16.56,81.55,71.78C490.6,355.29,474.25,375.68,442.82,375.68Z" transform="translate(0)"/><path class="cls-2" d="M565.78,375.89c-32.7,0-57.55-22.93-57.55-59.67,0-37,25.48-59.68,58-59.68,32.7,0,58,22.73,58,59.68C624.18,353,598.49,375.89,565.78,375.89Zm0-12.95c21.87,0,43.11-14.87,43.11-46.72S588.08,269.5,566,269.5s-42.68,14.86-42.68,46.72S543.69,362.94,565.78,362.94Z" transform="translate(0)"/><path class="cls-2" d="M647.12,217H662V374.19H647.12Z" transform="translate(0)"/><path class="cls-2" d="M792,374.19H777.09V353.81c-7,14.65-22.3,22.29-39.5,22.29-26.33,0-47.14-16.13-47.14-50.11V258.24H705.1v66.05c0,25.69,14,38.86,35.25,38.86,21.67,0,36.74-13.59,36.74-41.84V258.24H792Z" transform="translate(0)"/><path class="cls-2" d="M825.94,270.77H809.8V258.24h16.14v-29.1H841v29.1h31.86v12.53H841v72c0,14.23,4.89,18.69,18.27,18.69h13.59v12.74H857c-20.18,0-31-8.28-31-31.43Z" transform="translate(0)"/><path class="cls-2" d="M889.66,225.32a10.83,10.83,0,1,1,21.66,0,10.83,10.83,0,1,1-21.66,0Zm3.39,32.92h14.87v116H893.05Z" transform="translate(0)"/><path class="cls-2" d="M988.19,375.89c-32.7,0-57.55-22.93-57.55-59.67,0-37,25.49-59.68,58-59.68,32.7,0,58,22.73,58,59.68C1046.6,353,1020.9,375.89,988.19,375.89Zm0-12.95c21.88,0,43.11-14.87,43.11-46.72s-20.81-46.72-42.89-46.72-42.69,14.86-42.69,46.72S966.11,362.94,988.19,362.94Z" transform="translate(0)"/><path class="cls-2" d="M1156.4,307.94c0-25.7-14-38.87-35.26-38.87-21.66,0-36.74,13.59-36.74,41.84v63.28h-14.86V258.24h14.86V278c7.44-14.44,22.3-21.87,39.5-21.87,26.34,0,47.15,16.14,47.15,50.12v67.95H1156.4Z" transform="translate(0)"/><path class="cls-2" d="M1239.65,375.89c-26.33,0-44.81-13.16-46.72-34.4h15.29c1.27,12.74,12.32,21.87,31.22,21.87,16.56,0,25.91-8.92,25.91-20,0-28.67-69.66-11.89-69.66-55.43,0-17.2,16.35-31.43,40.77-31.43,24.85,0,41.2,13.17,42.48,35.47h-14.87c-.85-13-10.4-22.73-28-22.73-15.5,0-25.27,8.29-25.27,18.48,0,31.43,68.59,14.65,69.23,55.64C1280,362.09,1263.65,375.89,1239.65,375.89Z" transform="translate(0)"/><g class="cls-3"><polygon class="cls-4" points="3.67 8.93 0 16.02 0 8.93 3.67 8.93"/><polygon class="cls-5" points="8.29 8.93 0 24.92 0 16.02 3.67 8.93 8.29 8.93"/><polygon class="cls-6" points="12.9 8.93 0 33.83 0 24.92 8.29 8.93 12.9 8.93"/><polygon class="cls-7" points="17.52 8.93 0 42.73 0 33.83 12.9 8.93 17.52 8.93"/><polygon class="cls-7" points="22.13 8.93 0 51.64 0 42.73 17.52 8.93 22.13 8.93"/><polygon class="cls-8" points="26.74 8.93 0 60.54 0 51.64 22.13 8.93 26.74 8.93"/><polygon class="cls-9" points="31.36 8.93 0 69.45 0 60.54 26.74 8.93 31.36 8.93"/><polygon class="cls-9" points="35.97 8.93 0 78.35 0 69.45 31.36 8.93 35.97 8.93"/><polygon class="cls-10" points="40.59 8.93 0 87.26 0 78.35 35.97 8.93 40.59 8.93"/><polygon class="cls-10" points="45.2 8.93 0 96.16 0 87.26 40.59 8.93 45.2 8.93"/><polygon class="cls-11" points="49.82 8.93 0 105.07 0 96.16 45.2 8.93 49.82 8.93"/><polygon class="cls-11" points="54.43 8.93 0 113.97 0 105.07 49.82 8.93 54.43 8.93"/><polygon class="cls-12" points="59.05 8.93 0 122.88 0 113.97 54.43 8.93 59.05 8.93"/><polygon class="cls-13" points="63.66 8.93 0 131.78 0 122.88 59.05 8.93 63.66 8.93"/><polygon class="cls-13" points="68.28 8.93 0 140.69 0 131.78 63.66 8.93 68.28 8.93"/><polygon class="cls-14" points="72.89 8.93 0 149.6 0 140.69 68.28 8.93 72.89 8.93"/><polygon class="cls-14" points="77.5 8.93 0 158.5 0 149.6 72.89 8.93 77.5 8.93"/><polygon class="cls-15" points="82.12 8.93 0 167.41 0 158.5 77.5 8.93 82.12 8.93"/><polygon class="cls-15" points="86.73 8.93 0 176.31 0 167.41 82.12 8.93 86.73 8.93"/><polygon class="cls-16" points="91.35 8.93 0 185.22 0 176.31 86.73 8.93 91.35 8.93"/><polygon class="cls-17" points="95.96 8.93 0 194.12 0 185.22 91.35 8.93 95.96 8.93"/><polygon class="cls-17" points="100.58 8.93 0 203.03 0 194.12 95.96 8.93 100.58 8.93"/><polygon class="cls-18" points="105.19 8.93 0 211.93 0 203.03 100.58 8.93 105.19 8.93"/><polygon class="cls-18" points="109.81 8.93 0 220.84 0 211.93 105.19 8.93 109.81 8.93"/><polygon class="cls-19" points="114.42 8.93 0 229.74 0 220.84 109.81 8.93 114.42 8.93"/><polygon class="cls-20" points="119.03 8.93 0 238.65 0 229.74 114.42 8.93 119.03 8.93"/><polygon class="cls-20" points="123.65 8.93 0 247.55 0 238.65 119.03 8.93 123.65 8.93"/><polygon class="cls-21" points="128.26 8.93 0 256.46 0 247.55 123.65 8.93 128.26 8.93"/><polygon class="cls-22" points="132.88 8.93 0 265.36 0 256.46 128.26 8.93 132.88 8.93"/><polygon class="cls-23" points="137.49 8.93 0 274.27 0 265.36 132.88 8.93 137.49 8.93"/><polygon class="cls-23" points="142.11 8.93 1.01 281.22 0 280.69 0 274.27 137.49 8.93 142.11 8.93"/><polygon class="cls-24" points="146.72 8.93 4.65 283.1 1.01 281.22 142.11 8.93 146.72 8.93"/><polygon class="cls-25" points="151.34 8.93 8.29 284.99 4.65 283.1 146.72 8.93 151.34 8.93"/><polygon class="cls-26" points="155.95 8.93 11.93 286.87 8.29 284.99 151.34 8.93 155.95 8.93"/><polygon class="cls-27" points="160.56 8.93 15.56 288.76 11.93 286.87 155.95 8.93 160.56 8.93"/><polygon class="cls-28" points="165.18 8.93 19.2 290.64 15.56 288.76 160.56 8.93 165.18 8.93"/><polygon class="cls-29" points="169.79 8.93 22.84 292.53 19.2 290.64 165.18 8.93 169.79 8.93"/><polygon class="cls-30" points="174.41 8.93 26.48 294.41 22.84 292.53 169.79 8.93 174.41 8.93"/><polygon class="cls-31" points="179.02 8.93 30.11 296.3 26.48 294.41 174.41 8.93 179.02 8.93"/><polygon class="cls-32" points="183.64 8.93 33.75 298.18 30.11 296.3 179.02 8.93 183.64 8.93"/><polygon class="cls-32" points="188.25 8.93 37.39 300.07 33.75 298.18 183.64 8.93 188.25 8.93"/><polygon class="cls-33" points="192.87 8.93 41.03 301.95 37.39 300.07 188.25 8.93 192.87 8.93"/><polygon class="cls-33" points="197.48 8.93 44.67 303.84 41.03 301.95 192.87 8.93 197.48 8.93"/><polygon class="cls-34" points="202.1 8.93 48.3 305.72 44.67 303.84 197.48 8.93 202.1 8.93"/><polygon class="cls-35" points="206.71 8.93 51.94 307.61 48.3 305.72 202.1 8.93 206.71 8.93"/><polygon class="cls-35" points="211.32 8.93 55.58 309.49 51.94 307.61 206.71 8.93 211.32 8.93"/><polygon class="cls-36" points="215.94 8.93 59.22 311.38 55.58 309.49 211.32 8.93 215.94 8.93"/><polygon class="cls-36" points="220.55 8.93 63.21 312.57 61.52 312.57 59.22 311.38 215.94 8.93 220.55 8.93"/><polygon class="cls-37" points="225.17 8.93 67.83 312.57 63.21 312.57 220.55 8.93 225.17 8.93"/><polygon class="cls-38" points="229.78 8.93 72.44 312.57 67.83 312.57 225.17 8.93 229.78 8.93"/><polygon class="cls-38" points="234.4 8.93 77.06 312.57 72.44 312.57 229.78 8.93 234.4 8.93"/><polygon class="cls-39" points="239.01 8.93 81.67 312.57 77.06 312.57 234.4 8.93 239.01 8.93"/><polygon class="cls-40" points="243.63 8.93 86.28 312.57 81.67 312.57 239.01 8.93 243.63 8.93"/><polygon class="cls-41" points="248.24 8.93 90.9 312.57 86.28 312.57 243.63 8.93 248.24 8.93"/><polygon class="cls-42" points="252.86 8.93 95.52 312.57 90.9 312.57 248.24 8.93 252.86 8.93"/><polygon class="cls-42" points="257.47 8.93 100.13 312.57 95.52 312.57 252.86 8.93 257.47 8.93"/><polygon class="cls-43" points="262.08 8.93 104.74 312.57 100.13 312.57 257.47 8.93 262.08 8.93"/><polygon class="cls-44" points="266.7 8.93 109.36 312.57 104.74 312.57 262.08 8.93 266.7 8.93"/><polygon class="cls-45" points="271.31 8.93 113.97 312.57 109.36 312.57 266.7 8.93 271.31 8.93"/><polygon class="cls-45" points="275.93 8.93 118.59 312.57 113.97 312.57 271.31 8.93 275.93 8.93"/><polygon class="cls-46" points="280.54 8.93 123.2 312.57 118.59 312.57 275.93 8.93 280.54 8.93"/><polygon class="cls-47" points="285.16 8.93 127.82 312.57 123.2 312.57 280.54 8.93 285.16 8.93"/><polygon class="cls-47" points="289.77 8.93 132.43 312.57 127.82 312.57 285.16 8.93 289.77 8.93"/><polygon class="cls-48" points="293.58 10.49 137.04 312.57 132.43 312.57 289.77 8.93 293.58 8.93 293.58 10.49"/><polygon class="cls-49" points="293.58 19.39 141.66 312.57 137.04 312.57 293.58 10.49 293.58 19.39"/><polygon class="cls-50" points="293.58 28.3 146.27 312.57 141.66 312.57 293.58 19.39 293.58 28.3"/><polygon class="cls-51" points="293.58 37.2 150.89 312.57 146.27 312.57 293.58 28.3 293.58 37.2"/><polygon class="cls-51" points="293.58 46.11 155.5 312.57 150.89 312.57 293.58 37.2 293.58 46.11"/><polygon class="cls-52" points="293.58 55.01 160.12 312.57 155.5 312.57 293.58 46.11 293.58 55.01"/><polygon class="cls-52" points="293.58 63.92 164.73 312.57 160.12 312.57 293.58 55.01 293.58 63.92"/><polygon class="cls-53" points="293.58 72.82 169.35 312.57 164.73 312.57 293.58 63.92 293.58 72.82"/><polygon class="cls-54" points="293.58 81.73 173.96 312.57 169.35 312.57 293.58 72.82 293.58 81.73"/><polygon class="cls-55" points="293.58 90.63 178.58 312.57 173.96 312.57 293.58 81.73 293.58 90.63"/><polygon class="cls-56" points="293.58 99.54 183.19 312.57 178.58 312.57 293.58 90.63 293.58 99.54"/><polygon class="cls-56" points="293.58 108.44 187.81 312.57 183.19 312.57 293.58 99.54 293.58 108.44"/><polygon class="cls-57" points="293.58 117.35 192.42 312.57 187.81 312.57 293.58 108.44 293.58 117.35"/><polygon class="cls-58" points="293.58 126.25 197.03 312.57 192.42 312.57 293.58 117.35 293.58 126.25"/><polygon class="cls-58" points="293.58 135.16 201.65 312.57 197.03 312.57 293.58 126.25 293.58 135.16"/><polygon class="cls-59" points="293.58 144.06 206.26 312.57 201.65 312.57 293.58 135.16 293.58 144.06"/><polygon class="cls-60" points="293.58 152.97 210.88 312.57 206.26 312.57 293.58 144.06 293.58 152.97"/><polygon class="cls-60" points="293.58 161.88 215.49 312.57 210.88 312.57 293.58 152.97 293.58 161.88"/><polygon class="cls-61" points="293.58 170.78 220.11 312.57 215.49 312.57 293.58 161.88 293.58 170.78"/><polygon class="cls-62" points="293.58 179.69 224.72 312.57 220.11 312.57 293.58 170.78 293.58 179.69"/><polygon class="cls-62" points="293.58 188.59 229.34 312.57 224.72 312.57 293.58 179.69 293.58 188.59"/><polygon class="cls-63" points="293.58 197.5 233.95 312.57 229.34 312.57 293.58 188.59 293.58 197.5"/><polygon class="cls-64" points="293.58 206.4 238.56 312.57 233.95 312.57 293.58 197.5 293.58 206.4"/><polygon class="cls-65" points="293.58 215.31 243.18 312.57 238.56 312.57 293.58 206.4 293.58 215.31"/><polygon class="cls-65" points="243.18 312.57 293.58 215.31 293.58 312.57 243.18 312.57"/></g><g class="cls-66"><polygon class="cls-9" points="3.64 71.32 0 78.35 0 71.32 3.64 71.32"/><polygon class="cls-10" points="8.26 71.32 0 87.26 0 78.35 3.64 71.32 8.26 71.32"/><polygon class="cls-10" points="12.87 71.32 0 96.16 0 87.26 8.26 71.32 12.87 71.32"/><polygon class="cls-11" points="17.49 71.32 0 105.07 0 96.16 12.87 71.32 17.49 71.32"/><polygon class="cls-11" points="22.1 71.32 0 113.97 0 105.07 17.49 71.32 22.1 71.32"/><polygon class="cls-12" points="26.72 71.32 0 122.88 0 113.97 22.1 71.32 26.72 71.32"/><polygon class="cls-13" points="31.33 71.32 0 131.78 0 122.88 26.72 71.32 31.33 71.32"/><polygon class="cls-13" points="35.95 71.32 0 140.69 0 131.78 31.33 71.32 35.95 71.32"/><polygon class="cls-14" points="40.56 71.32 0 149.6 0 140.69 35.95 71.32 40.56 71.32"/><polygon class="cls-14" points="45.17 71.32 0 158.5 0 149.6 40.56 71.32 45.17 71.32"/><polygon class="cls-15" points="49.79 71.32 0 167.41 0 158.5 45.17 71.32 49.79 71.32"/><polygon class="cls-15" points="54.4 71.32 0 176.31 0 167.41 49.79 71.32 54.4 71.32"/><polygon class="cls-16" points="59.02 71.32 0 185.22 0 176.31 54.4 71.32 59.02 71.32"/><polygon class="cls-17" points="63.63 71.32 0 194.12 0 185.22 59.02 71.32 63.63 71.32"/><polygon class="cls-17" points="68.25 71.32 0 203.03 0 194.12 63.63 71.32 68.25 71.32"/><polygon class="cls-18" points="72.86 71.32 0 211.93 0 203.03 68.25 71.32 72.86 71.32"/><polygon class="cls-18" points="77.48 71.32 0 220.84 0 211.93 72.86 71.32 77.48 71.32"/><polygon class="cls-19" points="82.09 71.32 0 229.74 0 220.84 77.48 71.32 82.09 71.32"/><polygon class="cls-20" points="86.7 71.32 0 238.65 0 229.74 82.09 71.32 86.7 71.32"/><polygon class="cls-20" points="91.32 71.32 0 247.55 0 238.65 86.7 71.32 91.32 71.32"/><polygon class="cls-21" points="95.93 71.32 0 256.46 0 247.55 91.32 71.32 95.93 71.32"/><polygon class="cls-22" points="100.55 71.32 0 265.36 0 256.46 95.93 71.32 100.55 71.32"/><polygon class="cls-23" points="105.16 71.32 0 274.27 0 265.36 100.55 71.32 105.16 71.32"/><polygon class="cls-23" points="109.78 71.32 0 283.17 0 274.27 105.16 71.32 109.78 71.32"/><polygon class="cls-24" points="114.39 71.32 0 292.08 0 283.17 109.78 71.32 114.39 71.32"/><polygon class="cls-25" points="119.01 71.32 0 300.99 0 292.08 114.39 71.32 119.01 71.32"/><polygon class="cls-26" points="123.62 71.32 0 309.89 0 300.99 119.01 71.32 123.62 71.32"/><polygon class="cls-27" points="128.24 71.32 0 318.8 0 309.89 123.62 71.32 128.24 71.32"/><polygon class="cls-28" points="132.85 71.32 0 327.7 0 318.8 128.24 71.32 132.85 71.32"/><polygon class="cls-29" points="137.47 71.32 0 336.61 0 327.7 132.85 71.32 137.47 71.32"/><polygon class="cls-30" points="142.08 71.32 0 345.51 0 336.61 137.47 71.32 142.08 71.32"/><polygon class="cls-31" points="146.69 71.32 0 354.42 0 345.51 142.08 71.32 146.69 71.32"/><polygon class="cls-32" points="151.31 71.32 0 363.32 0 354.42 146.69 71.32 151.31 71.32"/><polygon class="cls-32" points="155.92 71.32 0 372.23 0 363.32 151.31 71.32 155.92 71.32"/><polygon class="cls-33" points="160.54 71.32 3.8 373.79 0 373.79 0 372.23 155.92 71.32 160.54 71.32"/><polygon class="cls-33" points="165.15 71.32 8.42 373.79 3.8 373.79 160.54 71.32 165.15 71.32"/><polygon class="cls-34" points="169.77 71.32 13.03 373.79 8.42 373.79 165.15 71.32 169.77 71.32"/><polygon class="cls-35" points="174.38 71.32 17.65 373.79 13.03 373.79 169.77 71.32 174.38 71.32"/><polygon class="cls-35" points="179 71.32 22.26 373.79 17.65 373.79 174.38 71.32 179 71.32"/><polygon class="cls-36" points="183.61 71.32 26.88 373.79 22.26 373.79 179 71.32 183.61 71.32"/><polygon class="cls-36" points="188.22 71.32 31.49 373.79 26.88 373.79 183.61 71.32 188.22 71.32"/><polygon class="cls-37" points="192.84 71.32 36.11 373.79 31.49 373.79 188.22 71.32 192.84 71.32"/><polygon class="cls-38" points="197.45 71.32 40.72 373.79 36.11 373.79 192.84 71.32 197.45 71.32"/><polygon class="cls-38" points="202.07 71.32 45.34 373.79 40.72 373.79 197.45 71.32 202.07 71.32"/><polygon class="cls-39" points="206.68 71.32 49.95 373.79 45.34 373.79 202.07 71.32 206.68 71.32"/><polygon class="cls-40" points="211.3 71.32 54.56 373.79 49.95 373.79 206.68 71.32 211.3 71.32"/><polygon class="cls-41" points="215.91 71.32 59.18 373.79 54.56 373.79 211.3 71.32 215.91 71.32"/><polygon class="cls-42" points="220.53 71.32 63.79 373.79 59.18 373.79 215.91 71.32 220.53 71.32"/><polygon class="cls-42" points="225.14 71.32 68.41 373.79 63.79 373.79 220.53 71.32 225.14 71.32"/><polygon class="cls-43" points="229.75 71.32 73.02 373.79 68.41 373.79 225.14 71.32 229.75 71.32"/><polygon class="cls-44" points="232.06 71.32 233.88 72.27 77.64 373.79 73.02 373.79 229.75 71.32 232.06 71.32"/><polygon class="cls-45" points="233.88 72.27 237.52 74.15 82.25 373.79 77.64 373.79 233.88 72.27"/><polygon class="cls-45" points="237.52 74.15 241.16 76.04 86.86 373.79 82.25 373.79 237.52 74.15"/><polygon class="cls-46" points="241.16 76.04 244.79 77.92 91.48 373.79 86.86 373.79 241.16 76.04"/><polygon class="cls-47" points="244.79 77.92 248.43 79.81 96.09 373.79 91.48 373.79 244.79 77.92"/><polygon class="cls-47" points="248.43 79.81 252.07 81.69 100.71 373.79 96.09 373.79 248.43 79.81"/><polygon class="cls-48" points="252.07 81.69 255.71 83.58 105.32 373.79 100.71 373.79 252.07 81.69"/><polygon class="cls-49" points="255.71 83.58 259.35 85.46 109.94 373.79 105.32 373.79 255.71 83.58"/><polygon class="cls-50" points="259.35 85.46 262.98 87.35 114.55 373.79 109.94 373.79 259.35 85.46"/><polygon class="cls-51" points="262.98 87.35 266.62 89.23 119.17 373.79 114.55 373.79 262.98 87.35"/><polygon class="cls-51" points="266.62 89.23 270.26 91.12 123.78 373.79 119.17 373.79 266.62 89.23"/><polygon class="cls-52" points="270.26 91.12 273.9 93 128.4 373.79 123.78 373.79 270.26 91.12"/><polygon class="cls-52" points="273.9 93 277.53 94.89 133.01 373.79 128.4 373.79 273.9 93"/><polygon class="cls-53" points="277.53 94.89 281.17 96.77 137.63 373.79 133.01 373.79 277.53 94.89"/><polygon class="cls-54" points="281.17 96.77 284.81 98.66 142.24 373.79 137.63 373.79 281.17 96.77"/><polygon class="cls-55" points="284.81 98.66 288.45 100.54 146.85 373.79 142.24 373.79 284.81 98.66"/><polygon class="cls-56" points="288.45 100.54 292.08 102.43 151.47 373.79 146.85 373.79 288.45 100.54"/><polygon class="cls-56" points="292.08 102.43 293.58 103.2 293.58 108.44 156.08 373.79 151.47 373.79 292.08 102.43"/><polygon class="cls-57" points="293.58 117.35 160.7 373.79 156.08 373.79 293.58 108.44 293.58 117.35"/><polygon class="cls-58" points="293.58 126.25 165.31 373.79 160.7 373.79 293.58 117.35 293.58 126.25"/><polygon class="cls-58" points="293.58 135.16 169.93 373.79 165.31 373.79 293.58 126.25 293.58 135.16"/><polygon class="cls-59" points="293.58 144.06 174.54 373.79 169.93 373.79 293.58 135.16 293.58 144.06"/><polygon class="cls-60" points="293.58 152.97 179.16 373.79 174.54 373.79 293.58 144.06 293.58 152.97"/><polygon class="cls-60" points="293.58 161.88 183.77 373.79 179.16 373.79 293.58 152.97 293.58 161.88"/><polygon class="cls-61" points="293.58 170.78 188.38 373.79 183.77 373.79 293.58 161.88 293.58 170.78"/><polygon class="cls-62" points="293.58 179.69 193 373.79 188.38 373.79 293.58 170.78 293.58 179.69"/><polygon class="cls-62" points="293.58 188.59 197.61 373.79 193 373.79 293.58 179.69 293.58 188.59"/><polygon class="cls-63" points="293.58 197.5 202.23 373.79 197.61 373.79 293.58 188.59 293.58 197.5"/><polygon class="cls-64" points="293.58 206.4 206.84 373.79 202.23 373.79 293.58 197.5 293.58 206.4"/><polygon class="cls-65" points="293.58 215.31 211.46 373.79 206.84 373.79 293.58 206.4 293.58 215.31"/><polygon class="cls-65" points="211.46 373.79 293.58 215.31 293.58 373.79 211.46 373.79"/></g></g></g></svg>