<svg xmlns="http://www.w3.org/2000/svg" viewBox="0 0 887.3 376.1"><defs><style>.cls-1{fill:#2aa1db;}</style></defs><g id="Layer_2" data-name="Layer 2"><g id="Layer_1-2" data-name="Layer 1"><path class="cls-1" d="M100.94,95.34H29.44v66.48H4.51V9.84H29.44V75h71.5V9.84h24.93v152H100.94Z"/><path class="cls-1" d="M202.83,39.36c20.33,0,34.33,9.62,41.76,19.46V41.33h25.15V161.82H244.59V143.88c-7.65,10.28-22.08,19.9-42.2,19.9C171.12,163.78,146,138.2,146,101S171.12,39.36,202.83,39.36ZM208.07,61c-18.58,0-36.51,14-36.51,40s17.93,41.1,36.51,41.1c18.81,0,36.52-14.65,36.52-40.67C244.59,75.66,226.88,61,208.07,61Z"/><path class="cls-1" d="M341.89,163.78c-28.87,0-49.2-17.05-50.3-38.92H317.4c.87,9.84,10.27,17.93,24.05,17.93,14.43,0,22.09-6.12,22.09-14.43,0-23.62-70-10.06-70-54.23,0-19.24,17.93-34.77,46.36-34.77,27.33,0,45.27,14.65,46.58,38.7H361.57c-.88-10.49-9-17.71-22.52-17.71-13.34,0-20.34,5.47-20.34,13.56,0,24.27,68,10.72,69.32,54.23C388,148.48,370.32,163.78,341.89,163.78Z"/><path class="cls-1" d="M410.54,0h24.93V55.32c8.31-10.06,21.87-16,37.39-16,26.9,0,47.89,17.71,47.89,51.39v71.07H496V94.47C496,72.38,484,61,465.86,61c-18.36,0-30.39,11.37-30.39,33.46v67.35H410.54Z"/><path class="cls-1" d="M50.12,375.68C20.39,375.68.85,358.69,0,336H15.72c1.27,12.32,10.4,27.18,34.4,27.18,20.6,0,32.7-12.1,32.7-27.4,0-43.74-81.55-16.14-81.55-72,0-22.93,18.9-39.71,47.57-39.71,28.25,0,45.24,15.71,47.79,36.1H80.49c-1.7-10.4-11.68-23.15-32.28-23.36-17.42-.21-31.86,9.35-31.86,26.55,0,42.9,81.55,16.56,81.55,71.78C97.9,355.29,81.55,375.68,50.12,375.68Z"/><path class="cls-1" d="M173.08,375.89c-32.7,0-57.55-22.93-57.55-59.67,0-37,25.49-59.68,58-59.68,32.7,0,58,22.73,58,59.68C231.49,353,205.79,375.89,173.08,375.89Zm0-12.95c21.88,0,43.11-14.87,43.11-46.72S195.38,269.5,173.3,269.5s-42.69,14.86-42.69,46.72S151,362.94,173.08,362.94Z"/><path class="cls-1" d="M254.43,217h14.86V374.19H254.43Z"/><path class="cls-1" d="M399.26,374.19H384.4V353.81c-7,14.65-22.3,22.29-39.5,22.29-26.34,0-47.15-16.13-47.15-50.11V258.24H312.4v66.05c0,25.69,14,38.86,35.26,38.86,21.66,0,36.74-13.59,36.74-41.84V258.24h14.86Z"/><path class="cls-1" d="M433.25,270.77H417.11V258.24h16.14v-29.1h15.08v29.1h31.85v12.53H448.33v72c0,14.23,4.88,18.69,18.26,18.69h13.59v12.74H464.25c-20.17,0-31-8.28-31-31.43Z"/><path class="cls-1" d="M497,225.32a10.83,10.83,0,1,1,21.66,0,10.83,10.83,0,1,1-21.66,0Zm3.4,32.92h14.86v116H500.36Z"/><path class="cls-1" d="M595.5,375.89c-32.71,0-57.56-22.93-57.56-59.67,0-37,25.49-59.68,58-59.68,32.71,0,58,22.73,58,59.68C653.9,353,628.2,375.89,595.5,375.89Zm0-12.95c21.87,0,43.11-14.87,43.11-46.72s-20.81-46.72-42.9-46.72S553,284.36,553,316.22,573.41,362.94,595.5,362.94Z"/><path class="cls-1" d="M763.7,307.94c0-25.7-14-38.87-35.25-38.87-21.67,0-36.74,13.59-36.74,41.84v63.28H676.84V258.24h14.87V278c7.43-14.44,22.3-21.87,39.5-21.87,26.33,0,47.14,16.14,47.14,50.12v67.95H763.7Z"/><path class="cls-1" d="M847,375.89c-26.33,0-44.81-13.16-46.72-34.4h15.29c1.28,12.74,12.32,21.87,31.22,21.87,16.57,0,25.91-8.92,25.91-20,0-28.67-69.66-11.89-69.66-55.43,0-17.2,16.36-31.43,40.78-31.43,24.85,0,41.2,13.17,42.47,35.47H871.38c-.85-13-10.41-22.73-28-22.73-15.5,0-25.27,8.29-25.27,18.48,0,31.43,68.6,14.65,69.23,55.64C887.3,362.09,871,375.89,847,375.89Z"/></g></g></svg>